<svg width="41" height="40" viewBox="0 0 41 40" fill="none" xmlns="http://www.w3.org/2000/svg">
<g clip-path="url(#clip0_8_290)">
<path d="M20.2554 40.0045C31.4422 40.0045 40.5108 31.0492 40.5108 20.0023C40.5108 8.95532 31.4422 0 20.2554 0C9.06866 0 0 8.95532 0 20.0023C0 31.0492 9.06866 40.0045 20.2554 40.0045Z" fill="#080808"/>
<path fill-rule="evenodd" clip-rule="evenodd" d="M21.6117 27.4114C22.3239 24.1018 22.4456 23.1975 25.3798 20.9369C26.9184 20.226 28.1527 18.9862 28.8593 17.4419C29.3991 16.137 29.4724 14.6849 29.0667 13.332C28.341 10.4248 26.5562 7.6216 24.1087 6.16122C23.2048 5.61457 22.1929 5.2723 21.1435 5.15829C20.0942 5.04428 19.0327 5.16128 18.033 5.50111C16.7504 5.98363 15.5787 6.72202 14.5886 7.67166C13.5986 8.62129 12.8108 9.76245 12.2728 11.0261C11.6346 12.3797 11.2846 13.8518 11.2452 15.3485C11.2146 16.2414 11.4199 17.1265 11.8402 17.9141C12.2605 18.7018 12.8809 19.364 13.6385 19.8337C14.612 20.5962 15.4789 21.3061 16.2391 21.9632C17.5913 23.1206 18.3921 24.9292 18.6415 27.3888C19.7352 37.3055 20.7253 37.3055 21.6117 27.3888V27.4114Z" fill="#FFAD00"/>
<path d="M20.2502 22.8937C20.5788 22.8937 20.8452 20.4504 20.8452 17.4365C20.8452 14.4225 20.5788 11.9792 20.2502 11.9792C19.9216 11.9792 19.6553 14.4225 19.6553 17.4365C19.6553 20.4504 19.9216 22.8937 20.2502 22.8937Z" fill="#B50000"/>
</g>
<defs>
<clipPath id="clip0_8_290">
<rect width="40.5063" height="40" fill="white"/>
</clipPath>
</defs>
</svg>
