<svg width="133" height="12" viewBox="0 0 133 12" fill="none" xmlns="http://www.w3.org/2000/svg">
<path d="M6.624 3.348C6.624 3.812 6.508 4.216 6.276 4.56C6.052 4.904 5.76 5.172 5.4 5.364C5.048 5.548 4.672 5.64 4.272 5.64C4.064 5.64 3.884 5.604 3.732 5.532C3.588 5.46 3.496 5.404 3.456 5.364C3.432 5.34 3.412 5.3 3.396 5.244C3.38 5.18 3.372 5.124 3.372 5.076C3.372 5.02 3.388 4.992 3.42 4.992C3.484 5.008 3.556 5.02 3.636 5.028C3.724 5.036 3.812 5.04 3.9 5.04C4.188 5.04 4.424 4.9 4.608 4.62C4.792 4.332 4.884 3.964 4.884 3.516C4.884 3.204 4.828 2.916 4.716 2.652C4.612 2.38 4.46 2.16 4.26 1.992C4.068 1.824 3.84 1.74 3.576 1.74C3.448 1.74 3.324 1.748 3.204 1.764C3.092 1.772 3.02 1.808 2.988 1.872C2.964 1.936 2.948 2.016 2.94 2.112C2.94 2.208 2.94 2.32 2.94 2.448C2.94 2.472 2.94 2.496 2.94 2.52C2.94 2.544 2.94 2.568 2.94 2.592V7.296C2.94 7.32 2.94 7.348 2.94 7.38C2.94 7.404 2.94 7.428 2.94 7.452C2.94 7.66 2.944 7.844 2.952 8.004C2.96 8.164 2.984 8.296 3.024 8.4C3.048 8.448 3.108 8.488 3.204 8.52C3.308 8.552 3.416 8.576 3.528 8.592C3.648 8.6 3.732 8.608 3.78 8.616C3.812 8.656 3.824 8.728 3.816 8.832C3.816 8.936 3.804 9.008 3.78 9.048C3.556 9.024 3.28 9.004 2.952 8.988C2.632 8.972 2.348 8.964 2.1 8.964C1.852 8.964 1.572 8.972 1.26 8.988C0.948 9.004 0.676 9.024 0.444 9.048C0.42 9.008 0.404 8.936 0.396 8.832C0.396 8.728 0.412 8.656 0.444 8.616C0.5 8.608 0.584 8.6 0.696 8.592C0.808 8.576 0.916 8.552 1.02 8.52C1.124 8.488 1.184 8.448 1.2 8.4C1.248 8.28 1.276 8.128 1.284 7.944C1.292 7.76 1.296 7.544 1.296 7.296V2.988C1.296 2.732 1.292 2.516 1.284 2.34C1.276 2.156 1.248 2.004 1.2 1.884C1.184 1.828 1.124 1.788 1.02 1.764C0.916 1.74 0.808 1.724 0.696 1.716C0.584 1.708 0.5 1.704 0.444 1.704C0.412 1.664 0.396 1.588 0.396 1.476C0.404 1.364 0.42 1.292 0.444 1.26C0.708 1.276 0.992 1.288 1.296 1.296C1.6 1.296 1.876 1.296 2.124 1.296C2.372 1.296 2.648 1.292 2.952 1.284C3.264 1.268 3.592 1.26 3.936 1.26C4.424 1.26 4.872 1.344 5.28 1.512C5.688 1.672 6.012 1.908 6.252 2.22C6.5 2.524 6.624 2.9 6.624 3.348ZM9.55331 3.756C10.0973 3.756 10.5733 3.872 10.9813 4.104C11.3973 4.328 11.7213 4.636 11.9533 5.028C12.1853 5.42 12.3013 5.864 12.3013 6.36C12.3013 6.848 12.1813 7.3 11.9413 7.716C11.7013 8.132 11.3773 8.464 10.9693 8.712C10.5613 8.96 10.0973 9.084 9.57731 9.084C9.03331 9.084 8.55331 8.968 8.13731 8.736C7.72131 8.504 7.39731 8.188 7.16531 7.788C6.93331 7.388 6.81731 6.944 6.81731 6.456C6.81731 5.96 6.93731 5.508 7.17731 5.1C7.42531 4.692 7.75331 4.368 8.16131 4.128C8.57731 3.88 9.04131 3.756 9.55331 3.756ZM9.42131 4.248C9.20531 4.248 9.03331 4.312 8.90531 4.44C8.78531 4.56 8.69331 4.72 8.62931 4.92C8.57331 5.12 8.53331 5.336 8.50931 5.568C8.49331 5.792 8.48531 6.012 8.48531 6.228C8.48531 6.484 8.50931 6.752 8.55731 7.032C8.60531 7.304 8.67731 7.56 8.77331 7.8C8.86931 8.032 8.99331 8.224 9.14531 8.376C9.29731 8.52 9.48131 8.592 9.69731 8.592C9.91331 8.592 10.0813 8.532 10.2013 8.412C10.3293 8.284 10.4253 8.124 10.4893 7.932C10.5533 7.732 10.5933 7.52 10.6093 7.296C10.6333 7.064 10.6453 6.844 10.6453 6.636C10.6453 6.372 10.6213 6.104 10.5733 5.832C10.5253 5.552 10.4493 5.292 10.3453 5.052C10.2493 4.812 10.1253 4.62 9.97331 4.476C9.82131 4.324 9.63731 4.248 9.42131 4.248ZM13.9805 3.888C14.1485 3.888 14.3325 3.884 14.5325 3.876C14.7405 3.868 14.9365 3.856 15.1205 3.84C15.3045 3.824 15.4445 3.812 15.5405 3.804C15.5725 3.836 15.5885 3.908 15.5885 4.02C15.5885 4.132 15.5725 4.208 15.5405 4.248C15.4925 4.248 15.4125 4.26 15.3005 4.284C15.1885 4.308 15.0845 4.344 14.9885 4.392C14.8925 4.432 14.8445 4.488 14.8445 4.56C14.8445 4.576 14.8445 4.604 14.8445 4.644C14.8525 4.676 14.8605 4.708 14.8685 4.74C14.9725 4.94 15.0885 5.168 15.2165 5.424C15.3525 5.68 15.4805 5.928 15.6005 6.168C15.7205 6.408 15.8165 6.604 15.8885 6.756C15.9685 6.908 16.0085 6.984 16.0085 6.984C16.0085 6.984 16.0325 6.928 16.0805 6.816C16.1365 6.696 16.2005 6.548 16.2725 6.372C16.3525 6.188 16.4285 6.004 16.5005 5.82C16.5805 5.636 16.6445 5.476 16.6925 5.34C16.7485 5.196 16.7765 5.108 16.7765 5.076C16.7765 5.012 16.7605 4.94 16.7285 4.86C16.7045 4.78 16.6845 4.724 16.6685 4.692C16.5805 4.524 16.4485 4.408 16.2725 4.344C16.0965 4.28 15.9845 4.248 15.9365 4.248C15.8965 4.2 15.8765 4.124 15.8765 4.02C15.8845 3.908 15.9005 3.836 15.9245 3.804C16.1565 3.836 16.4205 3.856 16.7165 3.864C17.0205 3.872 17.2845 3.88 17.5085 3.888C17.7565 3.888 18.0285 3.88 18.3245 3.864C18.6205 3.84 18.8405 3.82 18.9845 3.804C19.0165 3.836 19.0325 3.908 19.0325 4.02C19.0325 4.132 19.0165 4.208 18.9845 4.248C18.9365 4.248 18.8565 4.26 18.7445 4.284C18.6325 4.308 18.5285 4.344 18.4325 4.392C18.3365 4.432 18.2885 4.488 18.2885 4.56C18.2885 4.576 18.2885 4.604 18.2885 4.644C18.2965 4.676 18.3045 4.708 18.3125 4.74C18.4085 4.948 18.5125 5.176 18.6245 5.424C18.7365 5.672 18.8405 5.908 18.9365 6.132C19.0405 6.356 19.1245 6.54 19.1885 6.684C19.2605 6.82 19.2965 6.888 19.2965 6.888C19.2965 6.888 19.3365 6.792 19.4165 6.6C19.5045 6.4 19.6085 6.152 19.7285 5.856C19.8565 5.56 19.9805 5.272 20.1005 4.992C20.1245 4.928 20.1485 4.856 20.1725 4.776C20.2045 4.696 20.2205 4.624 20.2205 4.56C20.2205 4.464 20.1565 4.396 20.0285 4.356C19.9085 4.308 19.7805 4.28 19.6445 4.272C19.5085 4.256 19.4245 4.248 19.3925 4.248C19.3605 4.216 19.3445 4.144 19.3445 4.032C19.3445 3.92 19.3565 3.844 19.3805 3.804C19.5565 3.828 19.7485 3.848 19.9565 3.864C20.1725 3.88 20.3925 3.888 20.6165 3.888C20.8645 3.888 21.0885 3.876 21.2885 3.852C21.4885 3.828 21.6325 3.812 21.7205 3.804C21.7445 3.836 21.7565 3.908 21.7565 4.02C21.7645 4.132 21.7525 4.208 21.7205 4.248C21.6725 4.248 21.5925 4.256 21.4805 4.272C21.3765 4.28 21.2725 4.308 21.1685 4.356C21.0645 4.404 20.9845 4.488 20.9285 4.608C20.7125 5.112 20.5165 5.564 20.3405 5.964C20.1645 6.356 19.9885 6.748 19.8125 7.14C19.6365 7.532 19.4325 7.98 19.2005 8.484C19.0965 8.708 18.9885 8.872 18.8765 8.976C18.7645 9.08 18.6805 9.132 18.6245 9.132C18.6085 9.132 18.5845 9.12 18.5525 9.096C18.5205 9.072 18.4965 9.052 18.4805 9.036C18.4805 9.036 18.4485 8.956 18.3845 8.796C18.3205 8.628 18.2365 8.412 18.1325 8.148C18.0285 7.884 17.9165 7.604 17.7965 7.308C17.6765 7.004 17.5605 6.716 17.4485 6.444C17.3445 6.172 17.2525 5.944 17.1725 5.76C17.0845 5.984 16.9725 6.252 16.8365 6.564C16.7085 6.868 16.5805 7.168 16.4525 7.464C16.3325 7.76 16.2285 8.004 16.1405 8.196C16.0605 8.388 16.0205 8.484 16.0205 8.484C15.9165 8.708 15.8045 8.872 15.6845 8.976C15.5725 9.08 15.4885 9.132 15.4325 9.132C15.4165 9.132 15.3925 9.12 15.3605 9.096C15.3285 9.072 15.3045 9.052 15.2885 9.036C15.0885 8.596 14.9005 8.2 14.7245 7.848C14.5565 7.488 14.3925 7.144 14.2325 6.816C14.0805 6.48 13.9205 6.144 13.7525 5.808C13.5925 5.464 13.4125 5.092 13.2125 4.692C13.1565 4.572 13.0765 4.48 12.9725 4.416C12.8685 4.352 12.7685 4.308 12.6725 4.284C12.5765 4.26 12.5125 4.248 12.4805 4.248C12.4485 4.2 12.4365 4.124 12.4445 4.02C12.4445 3.908 12.4565 3.836 12.4805 3.804C12.5845 3.812 12.7245 3.824 12.9005 3.84C13.0765 3.856 13.2605 3.868 13.4525 3.876C13.6525 3.884 13.8285 3.888 13.9805 3.888ZM23.3882 6.168C23.3882 6.576 23.4482 6.912 23.5682 7.176C23.6882 7.432 23.8362 7.628 24.0122 7.764C24.1882 7.9 24.3682 7.996 24.5522 8.052C24.7442 8.1 24.9042 8.124 25.0322 8.124C25.3762 8.124 25.6482 8.06 25.8482 7.932C26.0482 7.796 26.2122 7.664 26.3402 7.536C26.3802 7.544 26.4122 7.572 26.4362 7.62C26.4682 7.668 26.4842 7.712 26.4842 7.752C26.4842 7.856 26.4722 7.928 26.4482 7.968C26.3762 8.072 26.2442 8.216 26.0522 8.4C25.8602 8.584 25.6162 8.748 25.3202 8.892C25.0322 9.036 24.7002 9.108 24.3242 9.108C23.8922 9.108 23.4882 9.012 23.1122 8.82C22.7362 8.62 22.4322 8.34 22.2002 7.98C21.9762 7.612 21.8642 7.172 21.8642 6.66C21.8642 6.292 21.9362 5.936 22.0802 5.592C22.2242 5.24 22.4162 4.928 22.6562 4.656C22.9042 4.376 23.1842 4.156 23.4962 3.996C23.8082 3.836 24.1322 3.756 24.4682 3.756C24.8522 3.756 25.1762 3.816 25.4402 3.936C25.7042 4.056 25.9122 4.208 26.0642 4.392C26.2242 4.576 26.3402 4.772 26.4122 4.98C26.4842 5.18 26.5202 5.364 26.5202 5.532C26.5202 5.66 26.4882 5.772 26.4242 5.868C26.3682 5.964 26.2962 6.016 26.2082 6.024C25.9442 6.048 25.6482 6.072 25.3202 6.096C24.9922 6.112 24.6602 6.128 24.3242 6.144C23.9882 6.152 23.6762 6.16 23.3882 6.168ZM23.4002 5.7C23.4242 5.7 23.5002 5.7 23.6282 5.7C23.7642 5.692 23.9162 5.684 24.0842 5.676C24.2602 5.66 24.4242 5.648 24.5762 5.64C24.7282 5.624 24.8402 5.612 24.9122 5.604C24.9842 5.596 25.0282 5.572 25.0442 5.532C25.0602 5.484 25.0682 5.444 25.0682 5.412C25.0682 5.228 25.0442 5.048 24.9962 4.872C24.9482 4.696 24.8722 4.548 24.7682 4.428C24.6642 4.308 24.5242 4.248 24.3482 4.248C24.1722 4.248 24.0242 4.304 23.9042 4.416C23.7842 4.528 23.6842 4.664 23.6042 4.824C23.5322 4.984 23.4802 5.148 23.4482 5.316C23.4162 5.476 23.4002 5.604 23.4002 5.7ZM31.1428 3.756C31.2948 3.756 31.4348 3.772 31.5628 3.804C31.6908 3.836 31.7948 3.888 31.8748 3.96C31.8988 3.992 31.9268 4.064 31.9588 4.176C31.9908 4.288 32.0068 4.408 32.0068 4.536C32.0068 4.664 31.9748 4.8 31.9108 4.944C31.8548 5.088 31.7748 5.212 31.6708 5.316C31.5668 5.412 31.4468 5.46 31.3108 5.46C31.2068 5.46 31.1148 5.428 31.0348 5.364C30.9548 5.292 30.8788 5.228 30.8068 5.172C30.7428 5.108 30.6788 5.052 30.6148 5.004C30.5588 4.948 30.4788 4.92 30.3748 4.92C30.2148 4.92 30.0748 4.984 29.9548 5.112C29.8428 5.232 29.7548 5.368 29.6908 5.52C29.6268 5.664 29.5948 5.78 29.5948 5.868V7.296C29.5948 7.512 29.5988 7.72 29.6068 7.92C29.6148 8.12 29.6428 8.28 29.6908 8.4C29.7148 8.448 29.7868 8.488 29.9068 8.52C30.0268 8.552 30.1508 8.576 30.2788 8.592C30.4148 8.6 30.5068 8.608 30.5548 8.616C30.5868 8.656 30.5988 8.728 30.5908 8.832C30.5908 8.936 30.5788 9.008 30.5548 9.048C30.3308 9.024 30.0468 9.004 29.7028 8.988C29.3668 8.972 29.0748 8.964 28.8268 8.964C28.5788 8.964 28.3068 8.972 28.0108 8.988C27.7228 9.004 27.4628 9.024 27.2308 9.048C27.2068 9.008 27.1908 8.936 27.1828 8.832C27.1828 8.728 27.1988 8.656 27.2308 8.616C27.2868 8.608 27.3668 8.6 27.4708 8.592C27.5828 8.576 27.6908 8.552 27.7948 8.52C27.8988 8.488 27.9588 8.448 27.9748 8.4C28.0228 8.28 28.0508 8.128 28.0588 7.944C28.0668 7.76 28.0708 7.544 28.0708 7.296V5.952C28.0708 5.912 28.0668 5.828 28.0588 5.7C28.0588 5.564 28.0508 5.428 28.0348 5.292C28.0188 5.148 27.9948 5.048 27.9628 4.992C27.9308 4.928 27.8588 4.88 27.7468 4.848C27.6428 4.816 27.5388 4.792 27.4348 4.776C27.3308 4.76 27.2628 4.752 27.2308 4.752C27.2228 4.744 27.2148 4.712 27.2068 4.656C27.1988 4.592 27.1988 4.532 27.2068 4.476C27.2148 4.42 27.2268 4.392 27.2428 4.392C27.5388 4.368 27.8308 4.32 28.1188 4.248C28.4148 4.176 28.6868 4.096 28.9348 4.008C29.1828 3.92 29.3788 3.84 29.5228 3.768C29.5628 3.776 29.6068 3.808 29.6548 3.864C29.7028 3.92 29.7268 3.956 29.7268 3.972C29.7188 4.004 29.7028 4.084 29.6788 4.212C29.6628 4.34 29.6468 4.472 29.6308 4.608C29.6148 4.744 29.6068 4.84 29.6068 4.896C29.6068 4.928 29.6148 4.944 29.6308 4.944C29.6548 4.944 29.6708 4.94 29.6788 4.932C29.7748 4.764 29.8868 4.588 30.0148 4.404C30.1508 4.22 30.3108 4.068 30.4948 3.948C30.6788 3.82 30.8948 3.756 31.1428 3.756ZM33.9585 6.168C33.9585 6.576 34.0185 6.912 34.1385 7.176C34.2585 7.432 34.4065 7.628 34.5825 7.764C34.7585 7.9 34.9385 7.996 35.1225 8.052C35.3145 8.1 35.4745 8.124 35.6025 8.124C35.9465 8.124 36.2185 8.06 36.4185 7.932C36.6185 7.796 36.7825 7.664 36.9105 7.536C36.9505 7.544 36.9825 7.572 37.0065 7.62C37.0385 7.668 37.0545 7.712 37.0545 7.752C37.0545 7.856 37.0425 7.928 37.0185 7.968C36.9465 8.072 36.8145 8.216 36.6225 8.4C36.4305 8.584 36.1865 8.748 35.8905 8.892C35.6025 9.036 35.2705 9.108 34.8945 9.108C34.4625 9.108 34.0585 9.012 33.6825 8.82C33.3065 8.62 33.0025 8.34 32.7705 7.98C32.5465 7.612 32.4345 7.172 32.4345 6.66C32.4345 6.292 32.5065 5.936 32.6505 5.592C32.7945 5.24 32.9865 4.928 33.2265 4.656C33.4745 4.376 33.7545 4.156 34.0665 3.996C34.3785 3.836 34.7025 3.756 35.0385 3.756C35.4225 3.756 35.7465 3.816 36.0105 3.936C36.2745 4.056 36.4825 4.208 36.6345 4.392C36.7945 4.576 36.9105 4.772 36.9825 4.98C37.0545 5.18 37.0905 5.364 37.0905 5.532C37.0905 5.66 37.0585 5.772 36.9945 5.868C36.9385 5.964 36.8665 6.016 36.7785 6.024C36.5145 6.048 36.2185 6.072 35.8905 6.096C35.5625 6.112 35.2305 6.128 34.8945 6.144C34.5585 6.152 34.2465 6.16 33.9585 6.168ZM33.9705 5.7C33.9945 5.7 34.0705 5.7 34.1985 5.7C34.3345 5.692 34.4865 5.684 34.6545 5.676C34.8305 5.66 34.9945 5.648 35.1465 5.64C35.2985 5.624 35.4105 5.612 35.4825 5.604C35.5545 5.596 35.5985 5.572 35.6145 5.532C35.6305 5.484 35.6385 5.444 35.6385 5.412C35.6385 5.228 35.6145 5.048 35.5665 4.872C35.5185 4.696 35.4425 4.548 35.3385 4.428C35.2345 4.308 35.0945 4.248 34.9185 4.248C34.7425 4.248 34.5945 4.304 34.4745 4.416C34.3545 4.528 34.2545 4.664 34.1745 4.824C34.1025 4.984 34.0505 5.148 34.0185 5.316C33.9865 5.476 33.9705 5.604 33.9705 5.7ZM40.8971 3.768C41.0251 3.768 41.1211 3.772 41.1851 3.78C41.2571 3.78 41.3171 3.784 41.3651 3.792C41.3891 3.792 41.4051 3.76 41.4131 3.696C41.4211 3.632 41.4251 3.576 41.4251 3.528V2.46C41.4251 2.348 41.4211 2.252 41.4131 2.172C41.4051 2.092 41.3811 2 41.3411 1.896C41.3251 1.848 41.2691 1.808 41.1731 1.776C41.0771 1.744 40.9771 1.724 40.8731 1.716C40.7691 1.7 40.6931 1.692 40.6451 1.692C40.6211 1.692 40.6051 1.636 40.5971 1.524C40.5971 1.404 40.6131 1.332 40.6451 1.308C41.0851 1.268 41.4691 1.212 41.7971 1.14C42.1331 1.068 42.3971 1.004 42.5891 0.948C42.7891 0.884 42.8931 0.852 42.9011 0.852C42.9411 0.86 42.9771 0.888 43.0091 0.935999C43.0491 0.984 43.0731 1.024 43.0811 1.056C43.0811 1.056 43.0571 1.172 43.0091 1.404C42.9691 1.636 42.9491 1.916 42.9491 2.244V7.74C42.9491 7.828 42.9531 7.908 42.9611 7.98C42.9691 8.052 43.0011 8.12 43.0571 8.184C43.1051 8.24 43.1851 8.272 43.2971 8.28C43.4091 8.288 43.4971 8.292 43.5611 8.292C43.5691 8.292 43.5771 8.292 43.5851 8.292C43.6091 8.316 43.6211 8.368 43.6211 8.448C43.6211 8.528 43.5971 8.604 43.5491 8.676C43.3731 8.692 43.1771 8.724 42.9611 8.772C42.7531 8.812 42.5451 8.856 42.3371 8.904C42.1371 8.952 41.9611 8.992 41.8091 9.024C41.6651 9.064 41.5731 9.084 41.5331 9.084C41.4611 9.084 41.4251 8.988 41.4251 8.796V8.616C41.4251 8.6 41.4211 8.584 41.4131 8.568C41.4131 8.544 41.4051 8.54 41.3891 8.556C41.3251 8.596 41.2171 8.66 41.0651 8.748C40.9211 8.836 40.7491 8.916 40.5491 8.988C40.3571 9.06 40.1571 9.096 39.9491 9.096C39.5731 9.096 39.2211 8.988 38.8931 8.772C38.5731 8.556 38.3131 8.264 38.1131 7.896C37.9211 7.528 37.8251 7.116 37.8251 6.66C37.8251 6.164 37.9331 5.736 38.1491 5.376C38.3651 5.008 38.6371 4.708 38.9651 4.476C39.2931 4.236 39.6291 4.06 39.9731 3.948C40.3251 3.828 40.6331 3.768 40.8971 3.768ZM40.5131 4.368C40.2651 4.368 40.0651 4.452 39.9131 4.62C39.7691 4.788 39.6611 5.008 39.5891 5.28C39.5251 5.552 39.4931 5.844 39.4931 6.156C39.4931 6.796 39.5971 7.32 39.8051 7.728C40.0211 8.136 40.3131 8.34 40.6811 8.34C40.7931 8.34 40.9051 8.316 41.0171 8.268C41.1291 8.212 41.2251 8.152 41.3051 8.088C41.3851 8.016 41.4251 7.956 41.4251 7.908V4.896C41.4251 4.784 41.3331 4.668 41.1491 4.548C40.9731 4.428 40.7611 4.368 40.5131 4.368ZM50.2232 9.096C49.9192 9.096 49.6352 9.052 49.3712 8.964C49.1072 8.868 48.8992 8.82 48.7472 8.82C48.6432 8.82 48.5552 8.832 48.4832 8.856C48.4112 8.872 48.3552 8.888 48.3152 8.904C48.2992 8.904 48.2472 8.868 48.1592 8.796C48.0712 8.716 48.0272 8.656 48.0272 8.616C48.0672 8.504 48.0992 8.34 48.1232 8.124C48.1552 7.908 48.1712 7.608 48.1712 7.224V2.46C48.1712 2.356 48.1672 2.264 48.1592 2.184C48.1512 2.096 48.1272 2 48.0872 1.896C48.0712 1.848 48.0112 1.808 47.9072 1.776C47.8112 1.744 47.7112 1.724 47.6072 1.716C47.5032 1.7 47.4272 1.692 47.3792 1.692C47.3552 1.692 47.3432 1.636 47.3432 1.524C47.3352 1.404 47.3472 1.332 47.3792 1.308C47.8192 1.268 48.2072 1.212 48.5432 1.14C48.8792 1.068 49.1432 1.004 49.3352 0.948C49.5352 0.884 49.6392 0.852 49.6472 0.852C49.6872 0.86 49.7232 0.888 49.7552 0.935999C49.7872 0.984 49.8072 1.024 49.8152 1.056C49.8152 1.056 49.7952 1.172 49.7552 1.404C49.7152 1.636 49.6952 1.916 49.6952 2.244V4.14C49.6952 4.172 49.6992 4.212 49.7072 4.26C49.7152 4.308 49.7352 4.316 49.7672 4.284C49.8312 4.236 49.9272 4.168 50.0552 4.08C50.1912 3.992 50.3352 3.916 50.4872 3.852C50.6472 3.78 50.7912 3.744 50.9192 3.744C51.3752 3.744 51.7872 3.852 52.1552 4.068C52.5232 4.284 52.8152 4.58 53.0312 4.956C53.2472 5.332 53.3552 5.76 53.3552 6.24C53.3552 6.704 53.2632 7.116 53.0792 7.476C52.9032 7.828 52.6632 8.128 52.3592 8.376C52.0552 8.616 51.7192 8.796 51.3512 8.916C50.9832 9.036 50.6072 9.096 50.2232 9.096ZM50.3312 4.608C50.1712 4.608 50.0432 4.636 49.9472 4.692C49.8592 4.74 49.7872 4.796 49.7312 4.86C49.7072 4.884 49.6952 4.92 49.6952 4.968V7.848C49.6952 8.048 49.7592 8.22 49.8872 8.364C50.0232 8.508 50.2152 8.58 50.4632 8.58C50.7112 8.58 50.9232 8.484 51.0992 8.292C51.2832 8.1 51.4232 7.86 51.5192 7.572C51.6232 7.284 51.6752 6.996 51.6752 6.708C51.6752 6.172 51.6112 5.752 51.4832 5.448C51.3632 5.144 51.2032 4.928 51.0032 4.8C50.8032 4.672 50.5792 4.608 50.3312 4.608ZM55.1504 3.888C55.3984 3.888 55.6704 3.88 55.9664 3.864C56.2624 3.84 56.4824 3.82 56.6264 3.804C56.6584 3.836 56.6744 3.908 56.6744 4.02C56.6744 4.132 56.6584 4.208 56.6264 4.248C56.5784 4.248 56.4984 4.26 56.3864 4.284C56.2744 4.308 56.1704 4.344 56.0744 4.392C55.9784 4.432 55.9304 4.488 55.9304 4.56C55.9304 4.576 55.9304 4.604 55.9304 4.644C55.9384 4.676 55.9464 4.708 55.9544 4.74C56.0584 4.94 56.1784 5.172 56.3144 5.436C56.4504 5.7 56.5824 5.956 56.7104 6.204C56.8464 6.444 56.9544 6.644 57.0344 6.804C57.1224 6.964 57.1664 7.044 57.1664 7.044C57.1664 7.044 57.1944 6.98 57.2504 6.852C57.3144 6.716 57.3904 6.548 57.4784 6.348C57.5744 6.14 57.6744 5.916 57.7784 5.676C57.8904 5.436 57.9944 5.208 58.0904 4.992C58.1224 4.928 58.1504 4.856 58.1744 4.776C58.1984 4.696 58.2104 4.624 58.2104 4.56C58.2104 4.464 58.1464 4.396 58.0184 4.356C57.8984 4.308 57.7704 4.28 57.6344 4.272C57.4984 4.256 57.4144 4.248 57.3824 4.248C57.3504 4.216 57.3344 4.144 57.3344 4.032C57.3344 3.92 57.3464 3.844 57.3704 3.804C57.5464 3.828 57.7384 3.848 57.9464 3.864C58.1624 3.88 58.3824 3.888 58.6064 3.888C58.8544 3.888 59.0944 3.876 59.3264 3.852C59.5664 3.828 59.7304 3.812 59.8184 3.804C59.8424 3.836 59.8544 3.908 59.8544 4.02C59.8624 4.132 59.8504 4.208 59.8184 4.248C59.7704 4.248 59.6784 4.256 59.5424 4.272C59.4144 4.288 59.2824 4.324 59.1464 4.38C59.0184 4.436 58.9264 4.52 58.8704 4.632C58.8704 4.632 58.8264 4.724 58.7384 4.908C58.6584 5.084 58.5464 5.324 58.4024 5.628C58.2584 5.924 58.1024 6.252 57.9344 6.612C57.7664 6.972 57.5944 7.336 57.4184 7.704C57.2424 8.064 57.0824 8.4 56.9384 8.712C56.7624 9.088 56.6064 9.416 56.4704 9.696C56.3424 9.984 56.1544 10.28 55.9064 10.584C55.6024 10.968 55.3224 11.224 55.0664 11.352C54.8184 11.488 54.6024 11.556 54.4184 11.556C54.1704 11.556 53.9784 11.488 53.8424 11.352C53.7064 11.224 53.6384 11.084 53.6384 10.932C53.6384 10.796 53.6624 10.684 53.7104 10.596C53.7584 10.508 53.8224 10.436 53.9024 10.38C54.2144 10.38 54.4824 10.356 54.7064 10.308C54.9384 10.268 55.1424 10.184 55.3184 10.056C55.5024 9.928 55.6744 9.732 55.8344 9.468C55.9464 9.292 56.0224 9.152 56.0624 9.048C56.1024 8.952 56.1624 8.816 56.2424 8.64C56.1464 8.448 56.0184 8.192 55.8584 7.872C55.6984 7.544 55.5264 7.2 55.3424 6.84C55.1664 6.472 54.9984 6.128 54.8384 5.808C54.6784 5.48 54.5464 5.212 54.4424 5.004C54.3464 4.796 54.2984 4.692 54.2984 4.692C54.2504 4.572 54.1704 4.48 54.0584 4.416C53.9544 4.352 53.8544 4.308 53.7584 4.284C53.6624 4.26 53.5984 4.248 53.5664 4.248C53.5344 4.2 53.5224 4.124 53.5304 4.02C53.5304 3.908 53.5424 3.836 53.5664 3.804C53.6704 3.812 53.8184 3.824 54.0104 3.84C54.2024 3.856 54.4024 3.868 54.6104 3.876C54.8184 3.884 54.9984 3.888 55.1504 3.888Z" fill="white"/>
<path d="M70.8984 8.0625C70.7109 8.6875 70.2324 9 69.4629 9H67.2422C66.6094 9 66.293 8.79688 66.293 8.39062C65.8672 8.875 65.3438 9.11719 64.7227 9.11719C64.2656 9.11719 63.8945 8.97656 63.6094 8.69531C63.3242 8.41406 63.1816 8.04688 63.1816 7.59375C63.1816 6.77734 63.4941 6.13281 64.1191 5.66016C64.6855 5.23047 65.3867 5.01562 66.2227 5.01562H69.5684L68.4668 8.0625H70.8984ZM67.1191 5.95312H65.8242L65.4141 7.31836C65.3906 7.4043 65.3789 7.48242 65.3789 7.55273C65.3789 7.89258 65.7109 8.0625 66.375 8.0625L67.1191 5.95312ZM78.6621 8.0625C78.5801 8.38672 78.4004 8.63281 78.123 8.80078C77.9043 8.93359 77.6719 9 77.4258 9H74.9766C74.4023 9 74.1152 8.81641 74.1152 8.44922C73.8105 8.81641 73.3984 9 72.8789 9H71.8477C71.5312 9 71.2852 8.91797 71.1094 8.75391C70.9453 8.60156 70.8633 8.40039 70.8633 8.15039C70.8633 8.00977 70.8906 7.86523 70.9453 7.7168L71.9297 5.01562H74.0566L72.9609 8.0625H74.1504L75.2402 5.01562H77.3438L76.2773 8.0625H78.6621ZM83.8535 8.0625C83.6699 8.6875 83.1816 9 82.3887 9H79.4004C78.8223 9 78.5332 8.79688 78.5332 8.39062C78.5332 8.28906 78.5547 8.17969 78.5977 8.0625L79.3418 5.95312H78.3809L78.75 5.01562C79.4336 4.83984 79.9414 4.61523 80.2734 4.3418C80.6484 4.0332 81.0488 3.47461 81.4746 2.66602H82.6172L81.791 5.01562H83.3027C83.0605 5.64062 82.5684 5.95312 81.8262 5.95312H81.4395L80.707 8.0625H83.8535ZM93.832 5.01562C93.6758 5.64062 93.207 5.95312 92.4258 5.95312H88.7578C88.8867 6.03906 88.9922 6.19727 89.0742 6.42773C89.1562 6.6543 89.1895 6.85156 89.1738 7.01953C89.1191 7.67188 88.832 8.18359 88.3125 8.55469C87.8164 8.91016 87.1719 9.08984 86.3789 9.09375C85.457 9.10156 84.748 8.91992 84.252 8.54883C83.8105 8.2207 83.5898 7.78906 83.5898 7.25391C83.5898 7.14844 83.5996 7.04297 83.6191 6.9375C83.7207 6.34766 84.0137 5.88477 84.498 5.54883C85.0137 5.19336 85.7012 5.01562 86.5605 5.01562H93.832ZM87.4453 5.95312H86.1035L85.5762 7.45312C85.5488 7.53125 85.5352 7.60547 85.5352 7.67578C85.5352 8.01172 85.8477 8.17969 86.4727 8.17969C86.5469 8.17969 86.6113 8.17773 86.666 8.17383L87.4453 5.95312Z" fill="#FC8D2C"/>
<path d="M98.502 8.0625C98.4668 8.36328 98.3086 8.59961 98.0273 8.77148C97.7773 8.92383 97.4824 9 97.1426 9H93.9492C93.4688 9 93.2227 8.75195 93.2109 8.25586C93.3906 8.18164 93.5723 8.10938 93.7559 8.03906C94.0137 7.92188 94.209 7.7793 94.3418 7.61133C94.5215 7.38867 94.6113 7.10352 94.6113 6.75586C94.6113 6.54102 94.5117 6.35156 94.3125 6.1875C94.1133 6.02344 93.8926 5.94531 93.6504 5.95312L91.8164 11.2559H89.6895L92.332 3.59766H94.4531L93.9668 5.01562C94.8457 5.01562 95.4277 5.05664 95.7129 5.13867C96.4082 5.33008 96.7422 5.77734 96.7148 6.48047C96.6992 6.79297 96.5605 7.10742 96.2988 7.42383C96.0293 7.75195 95.7188 7.96484 95.3672 8.0625H98.502ZM105.885 8.0625C105.803 8.36328 105.615 8.59961 105.322 8.77148C105.061 8.92383 104.762 9 104.426 9H101.162C99.2637 9 98.3145 8.42773 98.3145 7.2832C98.3145 6.54883 98.6387 5.97266 99.2871 5.55469C99.8457 5.19531 100.51 5.01562 101.279 5.01562H102.129C102.625 5.01562 103.061 5.0918 103.436 5.24414C103.936 5.44727 104.197 5.75586 104.221 6.16992C104.24 6.58789 104.039 6.93555 103.617 7.21289H101.678L102.311 5.95312H101.074L100.594 7.36523C100.566 7.44727 100.553 7.52148 100.553 7.58789C100.553 7.9043 100.807 8.0625 101.314 8.0625H105.885ZM113.221 8.0625C113.139 8.36328 112.951 8.59961 112.658 8.77148C112.396 8.92383 112.098 9 111.762 9H108.498C106.6 9 105.65 8.42773 105.65 7.2832C105.65 6.54883 105.975 5.97266 106.623 5.55469C107.182 5.19531 107.846 5.01562 108.615 5.01562H109.465C109.961 5.01562 110.396 5.0918 110.771 5.24414C111.271 5.44727 111.533 5.75586 111.557 6.16992C111.576 6.58789 111.375 6.93555 110.953 7.21289H109.014L109.646 5.95312H108.41L107.93 7.36523C107.902 7.44727 107.889 7.52148 107.889 7.58789C107.889 7.9043 108.143 8.0625 108.65 8.0625H113.221ZM120.861 8.0625C120.826 8.36328 120.668 8.59961 120.387 8.77148C120.137 8.92383 119.842 9 119.502 9H116.309C115.828 9 115.582 8.75195 115.57 8.25586C115.75 8.18164 115.932 8.10938 116.115 8.03906C116.373 7.92188 116.568 7.7793 116.701 7.61133C116.881 7.38867 116.971 7.10352 116.971 6.75586C116.971 6.54102 116.871 6.35156 116.672 6.1875C116.473 6.02344 116.252 5.94531 116.01 5.95312L114.176 11.2559H112.049L114.691 3.59766H116.812L116.326 5.01562C117.205 5.01562 117.787 5.05664 118.072 5.13867C118.768 5.33008 119.102 5.77734 119.074 6.48047C119.059 6.79297 118.92 7.10742 118.658 7.42383C118.389 7.75195 118.078 7.96484 117.727 8.0625H120.861ZM128.449 8.0625C128.262 8.6875 127.783 9 127.014 9H124.793C124.16 9 123.844 8.79688 123.844 8.39062C123.418 8.875 122.895 9.11719 122.273 9.11719C121.816 9.11719 121.445 8.97656 121.16 8.69531C120.875 8.41406 120.732 8.04688 120.732 7.59375C120.732 6.77734 121.045 6.13281 121.67 5.66016C122.236 5.23047 122.938 5.01562 123.773 5.01562H127.119L126.018 8.0625H128.449ZM124.67 5.95312H123.375L122.965 7.31836C122.941 7.4043 122.93 7.48242 122.93 7.55273C122.93 7.89258 123.262 8.0625 123.926 8.0625L124.67 5.95312ZM132.973 8.0625C132.875 8.40625 132.65 8.66016 132.299 8.82422C132.053 8.94141 131.789 9 131.508 9H129.252C128.674 9 128.385 8.80273 128.385 8.4082C128.385 8.30664 128.406 8.19141 128.449 8.0625L130.623 1.93359H132.697L130.512 8.0625H132.973Z" fill="black"/>
</svg>
