<svg width="24" height="24" viewBox="0 0 24 24" fill="none" xmlns="http://www.w3.org/2000/svg">
<g clip-path="url(#clip0_3156_1845)">
<path d="M2.01287 13.8923C2.06014 13.892 2.10742 13.8916 2.15613 13.8913C2.3125 13.8905 2.4688 13.8914 2.62517 13.8924C2.73375 13.8924 2.84234 13.8923 2.95092 13.8921C3.17853 13.8919 3.40611 13.8926 3.63372 13.8939C3.92566 13.8955 4.21756 13.8952 4.5095 13.8944C4.73373 13.8939 4.95795 13.8943 5.18217 13.895C5.28982 13.8952 5.39747 13.8952 5.50512 13.8949C5.65551 13.8947 5.80585 13.8956 5.95623 13.8969C6.00084 13.8966 6.04546 13.8963 6.09143 13.896C6.39086 13.9003 6.39086 13.9003 6.54339 14.0058C6.64552 14.1657 6.63631 14.3271 6.63445 14.5108C6.63463 14.5496 6.63481 14.5884 6.63499 14.6284C6.63512 14.7104 6.63478 14.7923 6.63399 14.8743C6.63299 14.9996 6.63398 15.1248 6.63518 15.2501C6.63506 15.3299 6.63482 15.4096 6.63445 15.4893C6.63483 15.5267 6.63521 15.5641 6.6356 15.6026C6.63285 15.7657 6.62248 15.8713 6.53077 16.0083C6.39575 16.095 6.31736 16.0999 6.15764 16.0965C6.10749 16.0959 6.05734 16.0952 6.00567 16.0946C5.95358 16.0931 5.90149 16.0915 5.84783 16.0899C5.76861 16.0886 5.76861 16.0886 5.68779 16.0873C5.55753 16.0851 5.42728 16.0817 5.29705 16.0781C5.29705 16.2792 5.29705 16.4803 5.29705 16.6875C7.12236 16.6875 8.94767 16.6875 10.8283 16.6875C10.8283 16.0378 10.8283 15.3881 10.8283 14.7188C11.0392 14.5606 11.0392 14.5606 11.2056 14.5612C11.2429 14.561 11.2801 14.5608 11.3185 14.5606C11.3794 14.5614 11.3794 14.5614 11.4416 14.5622C11.4853 14.5622 11.529 14.5621 11.574 14.5621C11.7153 14.5622 11.8566 14.5633 11.998 14.5644C12.0853 14.5646 12.1726 14.5648 12.2599 14.5648C12.5835 14.5656 12.9071 14.5675 13.2306 14.5694C13.9538 14.5723 14.677 14.5752 15.422 14.5781C15.4375 16.5581 15.453 18.5381 15.4689 20.5781C14.3706 20.5781 13.2724 20.5781 12.1408 20.5781C12.1253 20.7019 12.1099 20.8256 12.0939 20.9531C12.0535 21.0833 11.9946 21.201 11.9328 21.3223C11.9163 21.3548 11.8997 21.3874 11.8827 21.4209C11.5765 21.9936 11.075 22.3774 10.4582 22.5683C9.79099 22.7404 9.11557 22.6616 8.50707 22.3394C7.98279 22.0067 7.61502 21.5344 7.40642 20.9531C7.37906 20.8254 7.36696 20.709 7.35955 20.5781C7.15845 20.5781 6.95736 20.5781 6.75017 20.5781C6.74824 20.6362 6.74631 20.6942 6.74431 20.7539C6.68691 21.261 6.35643 21.7609 5.97326 22.0871C5.36397 22.5485 4.74349 22.7117 3.98455 22.6406C3.36804 22.5336 2.83243 22.2399 2.43767 21.75C2.19904 21.4029 1.96892 21.0109 1.96892 20.5781C1.88946 20.5793 1.88946 20.5793 1.80838 20.5804C1.61166 20.5829 1.41493 20.5845 1.21819 20.5859C1.13307 20.5866 1.04796 20.5875 0.96285 20.5888C0.840439 20.5905 0.718052 20.5913 0.595632 20.5919C0.538639 20.593 0.538639 20.593 0.480495 20.5941C0.335819 20.5941 0.215657 20.5916 0.0838425 20.5284C-0.0388024 20.3952 -0.025706 20.2645 -0.023345 20.0925C-0.0235983 20.0575 -0.0238515 20.0225 -0.0241125 19.9864C-0.024699 19.8706 -0.023924 19.7549 -0.0230818 19.6392C-0.023089 19.5588 -0.0231588 19.4784 -0.0232885 19.398C-0.0233534 19.2295 -0.0227638 19.061 -0.021697 18.8925C-0.0203665 18.6764 -0.0204948 18.4603 -0.0210919 18.2442C-0.0214178 18.0782 -0.0210533 17.9122 -0.0204706 17.7462C-0.0202587 17.6665 -0.0202434 17.5868 -0.0204267 17.5072C-0.020563 17.3958 -0.0197907 17.2845 -0.0187674 17.1732C-0.0189784 17.1402 -0.0191894 17.1072 -0.0194068 17.0731C-0.0174253 16.9436 -0.0126648 16.849 0.0561485 16.7373C0.172004 16.6692 0.254939 16.6706 0.389123 16.6716C0.43979 16.6716 0.490457 16.6716 0.542659 16.6716C0.597301 16.6723 0.651943 16.673 0.708241 16.6738C0.764226 16.674 0.820211 16.6742 0.877892 16.6744C1.05701 16.6752 1.2361 16.6769 1.41521 16.6787C1.53652 16.6794 1.65783 16.6801 1.77913 16.6807C2.07678 16.6822 2.37441 16.6846 2.67205 16.6875C2.67205 16.4864 2.67205 16.2853 2.67205 16.0781C2.55268 16.0798 2.55268 16.0798 2.4309 16.0814C2.32671 16.0823 2.22252 16.0832 2.11834 16.084C2.06586 16.0848 2.01338 16.0856 1.95931 16.0864C1.90901 16.0867 1.8587 16.087 1.80687 16.0873C1.73728 16.088 1.73728 16.088 1.66628 16.0888C1.54705 16.0781 1.54705 16.0781 1.40642 15.9844C1.34874 15.8114 1.35014 15.6495 1.34838 15.4691C1.34781 15.4141 1.34781 15.4141 1.34723 15.3579C1.34658 15.2803 1.34608 15.2027 1.34571 15.1251C1.3449 15.0066 1.34285 14.8883 1.34078 14.7699C1.3403 14.6944 1.33991 14.6189 1.33959 14.5434C1.33877 14.5081 1.33795 14.4728 1.3371 14.4365C1.33774 14.2805 1.35311 14.1686 1.42556 14.0297C1.60906 13.8669 1.77506 13.8894 2.01287 13.8923ZM3.3283 19.4531C3.11434 19.7844 3.05706 20.097 3.09392 20.4844C3.18658 20.8201 3.37808 21.1111 3.66851 21.3051C4.0156 21.4955 4.34567 21.5633 4.73455 21.4746C5.08633 21.3526 5.38792 21.0837 5.56072 20.7539C5.68619 20.4122 5.68408 20.0231 5.54314 19.6875C5.34903 19.3182 5.0997 19.1155 4.71111 18.9697C4.13939 18.8574 3.71459 19.0181 3.3283 19.4531ZM8.67205 19.5C8.4616 19.836 8.43162 20.2008 8.50341 20.5855C8.59886 20.8999 8.8297 21.1714 9.10363 21.3479C9.47782 21.5288 9.81296 21.5545 10.2056 21.4192C10.5466 21.2787 10.8133 21.0248 10.9631 20.6865C11.0719 20.3475 11.0687 19.9972 10.9191 19.6729C10.7059 19.3028 10.4744 19.0981 10.0642 18.9683C9.4914 18.829 9.0445 19.0687 8.67205 19.5Z" fill="black"/>
<path d="M16.3824 11.368C16.4284 11.367 16.4284 11.367 16.4753 11.3659C16.5767 11.3638 16.678 11.3629 16.7794 11.3621C16.85 11.3613 16.9206 11.3605 16.9912 11.3597C17.1392 11.3582 17.2872 11.3574 17.4353 11.3569C17.6247 11.3561 17.8139 11.3527 18.0032 11.3487C18.149 11.3461 18.2949 11.3454 18.4408 11.3452C18.5105 11.3447 18.5803 11.3436 18.65 11.3418C19.1934 11.3284 19.1934 11.3284 19.3668 11.4776C19.4407 11.5862 19.4949 11.6922 19.547 11.8125C19.5918 11.8871 19.5918 11.8871 19.6374 11.9631C19.6632 12.0087 19.6889 12.0543 19.7155 12.1013C19.7451 12.1534 19.7746 12.2054 19.8051 12.2591C19.8203 12.2861 19.8355 12.3131 19.8512 12.3409C19.9334 12.4866 20.0162 12.6319 20.0989 12.7773C20.1156 12.8067 20.1324 12.8362 20.1496 12.8665C20.3601 13.2366 20.5753 13.6041 20.7905 13.9715C20.9062 14.169 21.0209 14.3669 21.1351 14.5652C21.165 14.6168 21.1949 14.6685 21.2256 14.7218C21.283 14.8211 21.3402 14.9205 21.3973 15.02C21.423 15.0644 21.4488 15.1089 21.4753 15.1548C21.4979 15.194 21.5205 15.2332 21.5438 15.2737C21.6284 15.4042 21.6935 15.5004 21.8467 15.5417C21.8835 15.5466 21.9203 15.5516 21.9582 15.5567C22.5297 15.6591 22.9999 15.9327 23.3908 16.3594C23.3908 16.3904 23.3908 16.4213 23.3908 16.4532C23.3361 16.4546 23.3361 16.4546 23.2804 16.456C23.116 16.4604 22.9516 16.4656 22.7873 16.4707C22.7299 16.4722 22.6726 16.4736 22.6135 16.4751C22.5588 16.477 22.5041 16.4788 22.4478 16.4806C22.3972 16.4821 22.3467 16.4836 22.2946 16.4851C22.1647 16.4882 22.1647 16.4882 22.0783 16.5938C22.0569 16.7598 22.0631 16.9275 22.0636 17.0948C22.0629 17.1408 22.0621 17.1868 22.0614 17.2342C22.0611 17.5749 22.1183 17.7868 22.2951 18.0791C22.617 18.3926 23.0122 18.4048 23.4406 18.4102C23.4946 18.4116 23.5486 18.413 23.6042 18.4144C23.7362 18.4177 23.8681 18.4202 24.0002 18.4219C24.0048 18.7064 24.0082 18.9909 24.0105 19.2754C24.0114 19.3722 24.0127 19.469 24.0143 19.5658C24.0166 19.7048 24.0177 19.8438 24.0185 19.9829C24.0194 20.0263 24.0204 20.0696 24.0214 20.1143C24.0215 20.4093 24.0215 20.4093 23.9263 20.5354C23.7713 20.5937 23.6421 20.5939 23.4765 20.5919C23.4285 20.5916 23.4285 20.5916 23.3796 20.5913C23.2778 20.5905 23.1761 20.5887 23.0744 20.587C23.0052 20.5863 22.9361 20.5856 22.8669 20.585C22.6978 20.5835 22.5287 20.5811 22.3595 20.5782C22.3534 20.6353 22.3472 20.6924 22.3409 20.7512C22.2855 21.1898 22.0851 21.5159 21.797 21.8438C21.7725 21.8727 21.748 21.9017 21.7227 21.9315C21.3109 22.3825 20.7608 22.6112 20.1599 22.6537C19.4814 22.6773 18.8821 22.5139 18.3634 22.0635C17.9228 21.6449 17.6391 21.19 17.5783 20.5782C17.5353 20.5791 17.4922 20.5801 17.4479 20.5811C17.2878 20.5843 17.1278 20.5867 16.9678 20.5885C16.8985 20.5894 16.8293 20.5907 16.7602 20.5923C16.6605 20.5946 16.561 20.5957 16.4613 20.5965C16.4015 20.5975 16.3416 20.5984 16.2798 20.5995C16.1252 20.5782 16.1252 20.5782 16.0232 20.5055C15.908 20.3508 15.9117 20.2182 15.9142 20.0327C15.9139 19.9965 15.9137 19.9603 15.9134 19.9229C15.9127 19.8014 15.9135 19.6799 15.9142 19.5583C15.914 19.4713 15.9137 19.3842 15.9134 19.2971C15.9127 19.0605 15.9133 18.8239 15.914 18.5873C15.9147 18.34 15.9144 18.0926 15.9142 17.8452C15.9141 17.4299 15.9147 17.0145 15.9158 16.5991C15.917 16.1185 15.9171 15.6379 15.9166 15.1573C15.9161 14.6953 15.9164 14.2334 15.917 13.7715C15.9173 13.5747 15.9173 13.3779 15.9171 13.1811C15.9168 12.9496 15.9173 12.718 15.9183 12.4864C15.9186 12.4013 15.9186 12.3162 15.9184 12.231C15.9181 12.1151 15.9187 11.9992 15.9195 11.8833C15.9192 11.8493 15.9189 11.8154 15.9186 11.7804C15.9204 11.6453 15.9225 11.5532 16.0006 11.4402C16.1244 11.3612 16.237 11.3705 16.3824 11.368ZM16.547 12C16.547 13.1602 16.547 14.3204 16.547 15.5157C18.0011 15.5157 19.4552 15.5157 20.9533 15.5157C20.6336 14.9161 20.6336 14.9161 20.2941 14.3291C20.0299 13.886 19.7709 13.4402 19.5137 12.993C19.4584 12.8968 19.4019 12.8013 19.3442 12.7065C19.2658 12.5625 19.2658 12.5625 19.2147 12.4025C19.1446 12.2145 19.097 12.1245 18.9377 12C18.5456 11.9038 18.1204 11.9481 17.7218 11.9649C17.1403 11.9823 17.1403 11.9823 16.547 12ZM18.8908 19.5C18.7004 19.804 18.6527 20.1317 18.7033 20.4844C18.7987 20.8205 18.986 21.1102 19.2779 21.3051C19.5792 21.4704 19.8798 21.5613 20.2229 21.4931C20.6613 21.3602 20.9495 21.1001 21.1818 20.7129C21.2903 20.422 21.2862 20.0789 21.19 19.7866C21.0064 19.3991 20.7331 19.1234 20.3263 18.9727C19.7248 18.8482 19.2898 19.038 18.8908 19.5Z" fill="black"/>
<path d="M12.4219 6.0937C12.5458 6.2167 12.6205 6.36292 12.7031 6.51558C12.7482 6.59265 12.7932 6.66971 12.8384 6.74669C12.9206 6.88766 13.0007 7.02982 13.0811 7.17183C13.1139 7.22958 13.1468 7.28731 13.1797 7.34505C13.2427 7.45579 13.3055 7.56667 13.3681 7.67762C13.4209 7.77111 13.474 7.86446 13.5275 7.95757C13.5487 7.99478 13.5699 8.03199 13.5917 8.07033C13.6188 8.11748 13.6188 8.11748 13.6465 8.16558C13.7108 8.29787 13.7207 8.38851 13.6875 8.5312C13.5317 8.67106 13.3646 8.77548 13.1827 8.87801C13.1037 8.92278 13.1037 8.92278 13.0231 8.96846C12.9953 8.98408 12.9676 8.9997 12.939 9.01579C12.7905 9.09933 12.6424 9.18354 12.4942 9.26765C12.4642 9.28468 12.4341 9.30171 12.4032 9.31925C12.1268 9.4761 11.8523 9.63607 11.5781 9.79683C11.1456 10.0502 10.7109 10.2996 10.2754 10.5478C9.8959 10.7641 9.51759 10.9823 9.14062 11.2031C8.70828 11.4562 8.27388 11.7056 7.83858 11.9537C7.39831 12.2046 6.95988 12.4585 6.52249 12.7145C6.17775 12.9161 5.83182 13.1155 5.48438 13.3125C5.32209 13.1314 5.25529 12.9135 5.17255 12.6892C5.15654 12.6466 5.14054 12.6041 5.12405 12.5602C5.07297 12.4244 5.02229 12.2883 4.97168 12.1523C4.9212 12.0169 4.87063 11.8816 4.81981 11.7464C4.78825 11.6623 4.75688 11.5782 4.72574 11.494C4.63338 11.2478 4.5279 11.0142 4.40625 10.7812C4.3749 10.7188 4.34363 10.6563 4.3125 10.5937C4.71871 10.3403 5.12924 10.0972 5.5459 9.86128C5.66185 9.79538 5.77774 9.72938 5.89362 9.66334C5.92247 9.64691 5.95133 9.63047 5.98106 9.61353C6.25601 9.45672 6.52955 9.29752 6.80273 9.13765C7.34197 8.82219 7.88293 8.5098 8.42427 8.19797C8.7294 8.02217 9.0344 7.84612 9.33941 7.67009C9.59556 7.52227 9.85179 7.37458 10.1082 7.22713C10.1851 7.18281 10.1851 7.18281 10.2636 7.1376C10.3657 7.07887 10.4678 7.02024 10.5699 6.9617C10.8182 6.81897 11.0646 6.67397 11.3082 6.52345C11.378 6.48077 11.378 6.48077 11.4492 6.43723C11.5363 6.38372 11.623 6.32955 11.7093 6.27459C11.9565 6.12342 12.132 6.0235 12.4219 6.0937Z" fill="black"/>
<path d="M21.193 1.38704C21.5215 1.55127 21.6756 1.90445 21.8444 2.21353C21.8835 2.28408 21.9254 2.35312 21.9677 2.42177C22.1101 2.65395 22.1899 2.86479 22.1719 3.14064C22.1279 3.32244 22.0722 3.47476 21.9375 3.60939C21.922 3.72118 21.922 3.72118 21.9226 3.8524C21.9216 3.90307 21.9207 3.95374 21.9198 4.00594C21.9192 4.06083 21.9187 4.11571 21.9181 4.17226C21.9172 4.22831 21.9163 4.28436 21.9154 4.34211C21.9126 4.5217 21.9104 4.70128 21.9082 4.88088C21.9064 5.0024 21.9046 5.12392 21.9027 5.24544C21.8982 5.54384 21.8942 5.84223 21.8907 6.14064C21.9536 6.13871 21.9536 6.13871 22.0178 6.13673C22.0727 6.13572 22.1277 6.13472 22.1844 6.13368C22.2661 6.13175 22.2661 6.13175 22.3496 6.12977C22.5015 6.14075 22.5615 6.15577 22.6758 6.25197C22.8147 6.41401 22.8342 6.48618 22.8372 6.6944C22.8379 6.74135 22.8387 6.78829 22.8395 6.83666C22.8416 7.0517 22.8435 7.26673 22.8446 7.48178C22.8453 7.59517 22.8466 7.70856 22.8484 7.82194C22.851 7.9854 22.852 8.1488 22.8527 8.31227C22.8538 8.36282 22.8548 8.41337 22.8559 8.46544C22.8548 8.85853 22.8548 8.85853 22.7153 9.03128C22.5301 9.19797 22.4356 9.19286 22.1895 9.19045C22.1338 9.19002 22.0781 9.1896 22.0207 9.18917C21.9778 9.18862 21.9349 9.18808 21.8907 9.18752C21.8919 9.23099 21.8931 9.27447 21.8944 9.31926C21.8984 9.48211 21.9013 9.64491 21.9035 9.80779C21.9047 9.87799 21.9063 9.94818 21.9083 10.0184C21.9282 10.721 21.9282 10.721 21.7222 10.9965C21.5334 11.1856 21.3212 11.2808 21.052 11.3011C20.8212 11.2913 20.6184 11.2335 20.4438 11.0786C20.2742 10.8872 20.1966 10.7363 20.1914 10.4766C20.1902 10.4403 20.189 10.4041 20.1878 10.3667C20.207 10.2403 20.242 10.2004 20.3438 10.125C20.5349 10.1051 20.603 10.1104 20.7657 10.2188C20.8062 10.3145 20.8334 10.4106 20.8621 10.5105C20.8997 10.6017 20.8997 10.6017 20.9958 10.6346C21.1083 10.6515 21.1083 10.6515 21.2344 10.5469C21.2584 10.4061 21.2584 10.4061 21.2584 10.2404C21.2609 10.1488 21.2609 10.1488 21.2634 10.0554C21.2645 9.99074 21.2656 9.92604 21.2666 9.86135C21.2682 9.79628 21.2698 9.73122 21.2715 9.66616C21.2754 9.50661 21.2786 9.34708 21.2813 9.18752C21.2434 9.18915 21.2055 9.19078 21.1665 9.19246C21.1164 9.19373 21.0663 9.195 21.0147 9.19631C20.9652 9.19794 20.9157 9.19957 20.8647 9.20125C20.6936 9.18515 20.6161 9.15748 20.4844 9.04689C20.3282 8.78088 20.3231 8.54026 20.3251 8.23683C20.325 8.19126 20.3248 8.14568 20.3247 8.09872C20.3246 8.00275 20.3249 7.90678 20.3254 7.81082C20.3262 7.66453 20.3254 7.51831 20.3246 7.37203C20.3246 7.27846 20.3248 7.18489 20.3251 7.09133C20.3248 7.04791 20.3245 7.00449 20.3242 6.95976C20.327 6.69887 20.3511 6.50834 20.4844 6.28127C20.7188 6.14064 20.7188 6.14064 21.2813 6.14064C21.2813 5.44455 21.2813 4.74846 21.2813 4.03127C20.8788 4.26311 20.8788 4.26311 20.4765 4.49536C20.308 4.59203 20.1389 4.68741 19.9688 4.78127C19.9245 4.80571 19.9245 4.80571 19.8793 4.83065C19.7925 4.87799 19.7052 4.9242 19.6176 4.97005C19.5668 4.99693 19.516 5.02382 19.4636 5.05152C19.2624 5.12859 19.0839 5.13975 18.8769 5.07662C18.8476 5.06133 18.8183 5.04604 18.7881 5.03029C18.7584 5.01561 18.7288 5.00092 18.6982 4.9858C18.4451 4.80366 18.3069 4.50143 18.1553 4.23635C18.1319 4.1961 18.1086 4.15586 18.0845 4.1144C17.8992 3.79248 17.8289 3.56188 17.8594 3.18752C18.0002 2.73006 18.565 2.50733 18.9522 2.2881C19.0333 2.24181 19.1144 2.19551 19.1954 2.14919C19.2765 2.10292 19.3576 2.05675 19.4386 2.01058C19.5817 1.92879 19.7243 1.84623 19.8666 1.76314C19.9074 1.73931 19.9483 1.71549 19.9903 1.69094C20.066 1.64671 20.1416 1.60241 20.2172 1.55803C20.2507 1.53852 20.2842 1.51902 20.3187 1.49892C20.3475 1.48204 20.3763 1.46516 20.406 1.44776C20.6495 1.31884 20.9305 1.3139 21.193 1.38704Z" fill="black"/>
<path d="M17.2969 3.51562C17.3654 3.64746 17.4209 3.77987 17.4728 3.91901C17.5764 4.18031 17.7105 4.41564 17.8564 4.65527C17.8925 4.71623 17.8925 4.71623 17.9292 4.77841C18.0595 4.99443 18.1866 5.17547 18.375 5.34375C18.3161 5.52048 18.2674 5.53158 18.1067 5.61859C18.0598 5.64436 18.0129 5.67013 17.9646 5.69667C17.9134 5.72426 17.8623 5.75185 17.8096 5.78027C17.7015 5.83963 17.5935 5.89908 17.4855 5.95862C17.4579 5.97378 17.4303 5.98895 17.4018 6.00457C17.1308 6.15381 16.8635 6.30911 16.5967 6.46582C16.5041 6.52009 16.4115 6.57435 16.3189 6.6286C16.2723 6.65592 16.2257 6.68324 16.1776 6.71139C15.8151 6.92309 15.4512 7.13232 15.0873 7.34161C14.9227 7.43628 14.7585 7.53143 14.5948 7.62762C14.564 7.64561 14.5332 7.66359 14.5014 7.68212C14.4244 7.72712 14.3475 7.77239 14.2707 7.81769C14.1562 7.875 14.1562 7.875 14.0156 7.875C13.9944 7.8377 13.9731 7.80039 13.9512 7.76196C13.8711 7.62128 13.7909 7.48062 13.7106 7.33999C13.6762 7.27954 13.6417 7.21909 13.6073 7.15862C13.5573 7.07085 13.5072 6.98312 13.4571 6.89539C13.4327 6.85246 13.4327 6.85246 13.4079 6.80868C13.2871 6.59715 13.1599 6.39038 13.0275 6.18592C12.9844 6.09375 12.9844 6.09375 13.0312 5.95312C13.1263 5.88733 13.1263 5.88733 13.2526 5.81891C13.323 5.78026 13.323 5.78026 13.3948 5.74083C13.4715 5.69944 13.4715 5.69944 13.5498 5.65723C13.6579 5.59787 13.7659 5.53842 13.8739 5.47888C13.9015 5.46372 13.9291 5.44855 13.9575 5.43293C14.2286 5.28369 14.4959 5.12838 14.7627 4.97168C14.8554 4.91735 14.9481 4.86303 15.0408 4.80872C15.0875 4.78139 15.1341 4.75406 15.1822 4.72591C15.8834 4.31616 16.5874 3.91107 17.2969 3.51562Z" fill="black"/>
<path d="M2.81086 10.95C2.84258 10.9499 2.8743 10.9497 2.90698 10.9496C2.97396 10.9495 3.04094 10.9498 3.10792 10.9504C3.21041 10.9511 3.31281 10.9504 3.41529 10.9495C3.48041 10.9496 3.54554 10.9497 3.61066 10.95C3.66991 10.9502 3.72915 10.9503 3.7902 10.9505C3.95487 10.9709 3.97764 10.9854 4.07795 11.1093C4.12689 11.2092 4.12689 11.2092 4.17136 11.326C4.18825 11.3698 4.20513 11.4136 4.22252 11.4587C4.24025 11.5059 4.25798 11.5531 4.27625 11.6017C4.29478 11.6502 4.31331 11.6986 4.3324 11.7486C4.37146 11.851 4.41034 11.9535 4.44904 12.056C4.50849 12.2135 4.56852 12.3707 4.62864 12.5279C4.66648 12.6274 4.70429 12.7268 4.74207 12.8263C4.76008 12.8736 4.7781 12.9208 4.79666 12.9695C4.8131 13.0132 4.82954 13.0568 4.84647 13.1018C4.86104 13.1403 4.8756 13.1788 4.89061 13.2185C4.9217 13.3124 4.9217 13.3124 4.9217 13.4062C4.07091 13.4062 3.22013 13.4062 2.34357 13.4062C2.34067 13.0301 2.33777 12.654 2.33478 12.2665C2.3335 12.1479 2.33222 12.0293 2.3309 11.907C2.33049 11.8132 2.33013 11.7193 2.32984 11.6255C2.32876 11.5522 2.32876 11.5522 2.32766 11.4774C2.32763 11.4075 2.32763 11.4075 2.32761 11.3361C2.32729 11.2956 2.32698 11.2551 2.32666 11.2134C2.37121 10.9392 2.57203 10.9507 2.81086 10.95Z" fill="black"/>
<path d="M10.0867 19.5058C10.2688 19.6272 10.4007 19.7706 10.4998 19.9687C10.5242 20.2138 10.5299 20.4206 10.4236 20.6455C10.2274 20.8572 10.0491 20.9818 9.75362 21.0044C9.54404 20.9949 9.36188 20.9346 9.20705 20.7905C9.00606 20.5548 8.98344 20.3998 8.98659 20.0982C9.01106 19.8579 9.13457 19.735 9.30739 19.5791C9.55079 19.4105 9.81552 19.4101 10.0867 19.5058Z" fill="black"/>
<path d="M20.3057 19.5059C20.4878 19.6273 20.6197 19.7707 20.7188 19.9688C20.7432 20.2139 20.7489 20.4207 20.6426 20.6455C20.4464 20.8572 20.2681 20.9818 19.9726 21.0044C19.7633 20.995 19.5822 20.9341 19.426 20.7922C19.2382 20.5758 19.2044 20.3982 19.2089 20.1224C19.23 19.894 19.3321 19.7491 19.5 19.6026C19.7537 19.4176 20.0154 19.4034 20.3057 19.5059Z" fill="black"/>
<path d="M4.69637 19.5088C4.88881 19.6328 5.03592 19.7481 5.10945 19.9687C5.13297 20.2144 5.13988 20.42 5.03328 20.6455C4.83701 20.8573 4.65891 20.9814 4.36348 21.0046C4.12439 20.9934 3.94556 20.9157 3.77937 20.7451C3.61903 20.4923 3.57664 20.3146 3.60945 20.0156C3.69502 19.7684 3.82541 19.6501 4.03133 19.5C4.26564 19.4219 4.46791 19.4237 4.69637 19.5088Z" fill="black"/>
<path d="M22.5469 16.9688C22.9491 16.9688 23.3512 16.9688 23.7656 16.9688C23.929 17.3364 24.0074 17.5239 24 17.9062C23.8184 17.9117 23.6368 17.915 23.4551 17.918C23.3781 17.9203 23.3781 17.9203 23.2996 17.9227C23.005 17.9263 22.8128 17.9266 22.5938 17.7188C22.5469 17.5781 22.5469 17.5781 22.5469 16.9688Z" fill="black"/>
</g>
<defs>
<clipPath id="clip0_3156_1845">
<rect width="24" height="24" fill="white"/>
</clipPath>
</defs>
</svg>
