<svg width="155" height="30" viewBox="0 0 155 30" fill="none" xmlns="http://www.w3.org/2000/svg">
<g filter="url(#filter0_d_1_37)">
<path d="M30.0938 10.375L27.2656 18.5C26.4948 20.1667 25.1979 21 23.375 21H15.4688C14.0833 21 13.3125 20.5417 13.1562 19.625C12.3958 20.5417 11.2969 21 9.85938 21H7.07812C5.53646 21 4.76562 20.4531 4.76562 19.3594C4.76562 19.099 4.82292 18.8125 4.9375 18.5L7.78125 10.375H13.4531L10.5312 18.5H13.25L16.1719 10.375H21.7656L18.9219 18.5H21.5781L24.4844 10.375H30.0938ZM42.2812 3.96875C42.2812 5.01042 41.875 5.89583 41.0625 6.625C40.2604 7.35417 39.2917 7.71875 38.1562 7.71875C37 7.71875 36.0156 7.35417 35.2031 6.625C34.401 5.89583 34 5.01042 34 3.96875C34 2.9375 34.401 2.05729 35.2031 1.32812C36.0156 0.598958 37 0.234375 38.1562 0.234375C39.2917 0.234375 40.2604 0.598958 41.0625 1.32812C41.875 2.05729 42.2812 2.9375 42.2812 3.96875ZM43.4062 18.5C43.1354 19.4167 42.5729 20.0938 41.7188 20.5312C41.1042 20.8438 40.4375 21 39.7188 21H33.5469C32.0573 21 31.3125 20.375 31.3125 19.125C31.3125 18.7708 31.3854 18.3906 31.5312 17.9844L34.25 10.375H39.9219L37.0312 18.5H43.4062ZM64.8438 18.5C64.5833 19.4167 63.9844 20.0938 63.0469 20.5312C62.3906 20.8438 61.6875 21 60.9375 21H54.7969C53.3698 21 52.6562 20.4479 52.6562 19.3438C52.6562 19 52.7292 18.625 52.875 18.2188L54.4844 13.8594C54.0052 14.3594 52.0938 16.099 48.75 19.0781C47.9271 19.8281 47.3021 20.3177 46.875 20.5469C46.3125 20.849 45.6354 21 44.8438 21H42.5156L49.1719 2.15625H54.7969L50.6406 13.8281L56.875 7.625H60.4688L56.8438 11.375H58.0312C59.4792 11.375 60.2031 11.9323 60.2031 13.0469C60.2031 13.401 60.1198 13.8125 59.9531 14.2812L58.4219 18.5H64.8438ZM75.6875 3.96875C75.6875 5.01042 75.2812 5.89583 74.4688 6.625C73.6667 7.35417 72.6979 7.71875 71.5625 7.71875C70.4062 7.71875 69.4219 7.35417 68.6094 6.625C67.8073 5.89583 67.4062 5.01042 67.4062 3.96875C67.4062 2.9375 67.8073 2.05729 68.6094 1.32812C69.4219 0.598958 70.4062 0.234375 71.5625 0.234375C72.6979 0.234375 73.6667 0.598958 74.4688 1.32812C75.2812 2.05729 75.6875 2.9375 75.6875 3.96875ZM76.8125 18.5C76.5417 19.4167 75.9792 20.0938 75.125 20.5312C74.5104 20.8438 73.8438 21 73.125 21H66.9531C65.4635 21 64.7188 20.375 64.7188 19.125C64.7188 18.7708 64.7917 18.3906 64.9375 17.9844L67.6562 10.375H73.3281L70.4375 18.5H76.8125ZM90.7031 18.5C90.2135 20.1667 88.9115 21 86.7969 21H78.8281C77.2865 21 76.5156 20.4583 76.5156 19.375C76.5156 19.1042 76.5729 18.8125 76.6875 18.5L78.6719 12.875H76.1094L77.0938 10.375C78.9167 9.90625 80.2708 9.30729 81.1562 8.57812C82.1562 7.75521 83.224 6.26562 84.3594 4.10938H87.4062L85.2031 10.375H89.2344C88.5885 12.0417 87.276 12.875 85.2969 12.875H84.2656L82.3125 18.5H90.7031ZM109.016 18.5C109.016 19.2292 108.615 19.8438 107.812 20.3438C107.104 20.7812 106.365 21 105.594 21H99.6094C98.026 21 97.2344 20.3438 97.2344 19.0312C97.2344 18.6979 97.3021 18.3385 97.4375 17.9531L99.2031 12.875H95.875L94.1406 17.3594C93.849 18.1198 93.2188 18.5 92.25 18.5H90.5938L92.6406 12.875C91.9948 12.7292 91.4688 12.4062 91.0625 11.9062C90.6667 11.3958 90.4688 10.8125 90.4688 10.1562C90.4688 8.95833 91.026 8.03125 92.1406 7.375C93.0677 6.83333 94.1719 6.5625 95.4531 6.5625H97.9844L96.6719 10.375H105.312L102.469 18.5H109.016ZM129.219 18.5C128.719 20.1667 127.443 21 125.391 21H119.469C117.781 21 116.938 20.4583 116.938 19.375C115.802 20.6667 114.406 21.3125 112.75 21.3125C111.531 21.3125 110.542 20.9375 109.781 20.1875C109.021 19.4375 108.641 18.4583 108.641 17.25C108.641 15.0729 109.474 13.3542 111.141 12.0938C112.651 10.9479 114.521 10.375 116.75 10.375H125.672L122.734 18.5H129.219ZM119.141 12.875H115.688L114.594 16.5156C114.531 16.7448 114.5 16.9531 114.5 17.1406C114.5 18.0469 115.385 18.5 117.156 18.5L119.141 12.875ZM150.625 18.5C150.365 19.4167 149.766 20.0938 148.828 20.5312C148.172 20.8438 147.469 21 146.719 21H140.578C139.151 21 138.438 20.4479 138.438 19.3438C138.438 19 138.51 18.625 138.656 18.2188L140.266 13.8594C139.786 14.3594 137.875 16.099 134.531 19.0781C133.708 19.8281 133.083 20.3177 132.656 20.5469C132.094 20.849 131.417 21 130.625 21H128.297L134.953 2.15625H140.578L136.422 13.8281L142.656 7.625H146.25L142.625 11.375H143.812C145.26 11.375 145.984 11.9323 145.984 13.0469C145.984 13.401 145.901 13.8125 145.734 14.2812L144.203 18.5H150.625Z" fill="black"/>
</g>
<defs>
<filter id="filter0_d_1_37" x="0.765625" y="0.234375" width="153.859" height="29.0781" filterUnits="userSpaceOnUse" color-interpolation-filters="sRGB">
<feFlood flood-opacity="0" result="BackgroundImageFix"/>
<feColorMatrix in="SourceAlpha" type="matrix" values="0 0 0 0 0 0 0 0 0 0 0 0 0 0 0 0 0 0 127 0" result="hardAlpha"/>
<feOffset dy="4"/>
<feGaussianBlur stdDeviation="2"/>
<feComposite in2="hardAlpha" operator="out"/>
<feColorMatrix type="matrix" values="0 0 0 0 0 0 0 0 0 0 0 0 0 0 0 0 0 0 0.25 0"/>
<feBlend mode="normal" in2="BackgroundImageFix" result="effect1_dropShadow_1_37"/>
<feBlend mode="normal" in="SourceGraphic" in2="effect1_dropShadow_1_37" result="shape"/>
</filter>
</defs>
</svg>
